<?xml version="1.0" standalone="no"?>
<!DOCTYPE svg PUBLIC "-//W3C//DTD SVG 20010904//EN"
 "http://www.w3.org/TR/2001/REC-SVG-20010904/DTD/svg10.dtd">
<svg version="1.0" xmlns="http://www.w3.org/2000/svg"
 width="1152.000000pt" height="1280.000000pt" viewBox="0 0 1152.000000 1280.000000"
 preserveAspectRatio="xMidYMid meet">
<metadata>
Created by potrace 1.15, written by Peter Selinger 2001-2017
</metadata>
<g transform="translate(0.000000,1280.000000) scale(0.100000,-0.100000)"
fill="#C2B280" stroke="none">
<path d="M2616 12417 c-10 -8 -21 -29 -25 -49 -5 -29 -33 -60 -167 -186 -509
-476 -1392 -1488 -1974 -2261 -141 -188 -140 -186 -175 -305 -52 -183 -78
-373 -95 -710 l-11 -210 149 -150 c175 -178 344 -357 777 -826 476 -515 603
-649 894 -942 l264 -267 -234 -229 c-739 -725 -1104 -1113 -1329 -1414 -79
-106 -89 -124 -108 -200 -47 -188 -55 -291 -48 -607 4 -202 3 -297 -4 -306
-11 -13 -3 -68 9 -61 3 3 45 -57 91 -132 149 -241 345 -505 607 -821 600 -723
1383 -1506 1811 -1810 l73 -52 103 75 c56 41 140 105 187 142 46 37 73 55 59
40 -13 -15 -18 -25 -10 -22 8 3 33 7 55 10 63 7 180 53 213 84 7 6 17 12 22
12 5 0 15 6 22 13 7 6 34 28 58 47 117 90 454 428 729 729 13 14 44 49 70 76
25 28 66 73 90 100 25 28 86 95 136 150 51 55 146 161 211 235 142 161 129
147 279 300 66 68 143 139 170 160 73 53 161 101 171 92 8 -7 -4 11 -36 54
-27 37 80 -77 395 -416 482 -521 643 -690 998 -1048 437 -440 718 -697 923
-843 140 -100 121 -94 200 -54 75 37 209 134 347 252 48 41 97 76 107 78 48 9
204 101 288 170 129 105 197 169 427 400 241 243 283 287 495 525 91 102 173
194 183 205 23 25 156 189 205 253 55 72 134 198 181 287 l42 80 -47 -50 -46
-50 47 62 c26 35 51 60 56 58 4 -3 11 0 15 6 4 8 3 9 -4 5 -20 -12 -12 8 15
39 l26 30 -18 -30 -18 -30 44 36 c65 53 92 110 85 182 -7 71 -17 92 -28 57 -5
-16 -6 -7 -3 25 18 192 27 459 22 643 l-6 213 -87 112 c-314 402 -505 608
-1349 1451 -281 280 -496 497 -479 482 l31 -27 32 66 c27 55 112 173 169 235
48 53 188 192 396 393 418 404 950 939 1012 1017 77 95 119 162 180 278 26 51
69 118 95 147 47 54 66 99 55 133 -4 10 -2 43 4 73 32 168 60 480 60 677 l0
93 -41 56 c-102 138 -470 569 -728 853 -398 437 -990 1034 -1311 1322 -213
191 -438 376 -592 489 -99 71 -118 90 -128 122 -6 21 -20 47 -31 58 -26 26
-73 25 -96 -4 -10 -12 -56 -51 -103 -86 -91 -69 -213 -170 -319 -265 -453
-405 -1466 -1450 -1910 -1969 l-84 -98 -59 58 c-33 32 -300 303 -593 603 -904
922 -1414 1397 -1914 1783 -34 26 -66 58 -71 72 -16 42 -69 58 -104 32z m8009
-3904 c-7 -42 -38 -78 -130 -155 -43 -36 -35 -26 27 34 70 67 88 90 94 121 3
20 8 37 11 37 3 0 2 -17 -2 -37z m-275 -5556 c0 -2 -10 -12 -22 -23 l-23 -19
19 23 c18 21 26 27 26 19z m-50 -61 c0 -2 -8 -10 -17 -17 -16 -13 -17 -12 -4
4 13 16 21 21 21 13z m-1556 -1637 c-16 -17 -51 -49 -79 -71 -30 -25 -20 -13
25 30 78 74 105 94 54 41z m-5204 -62 c0 -2 -10 -12 -22 -23 l-23 -19 19 23
c18 21 26 27 26 19z"/>
</g>
</svg>
